<svg width="42" height="43" viewBox="0 0 42 43" fill="none" xmlns="http://www.w3.org/2000/svg">
<path fill-rule="evenodd" clip-rule="evenodd" d="M24.52 29.0112H17.48C15.007 29.0112 13 27.0042 13 24.5312V17.4912C13 15.0182 15.007 13.0112 17.48 13.0112H24.52C26.993 13.0112 29 15.0182 29 17.4912V24.5312C29 27.0042 26.993 29.0112 24.52 29.0112ZM24.48 15.0112H17.52C16.129 15.0112 15 16.1402 15 17.5312V24.4912C15 25.8822 16.129 27.0112 17.52 27.0112H24.48C25.871 27.0112 27 25.8822 27 24.4912V17.5312C27 16.1402 25.871 15.0112 24.48 15.0112ZM25 16.0112C25.552 16.0112 26 16.4592 26 17.0112C26 17.5632 25.552 18.0112 25 18.0112C24.448 18.0112 24 17.5632 24 17.0112C24 16.4592 24.448 16.0112 25 16.0112ZM21 17.0112C23.208 17.0112 25 18.8032 25 21.0112C25 23.2192 23.208 25.0112 21 25.0112C18.792 25.0112 17 23.2192 17 21.0112C17 18.8032 18.792 17.0112 21 17.0112ZM21 19.0112C22.104 19.0112 23 19.9072 23 21.0112C23 22.1152 22.104 23.0112 21 23.0112C19.896 23.0112 19 22.1152 19 21.0112C19 19.9072 19.896 19.0112 21 19.0112Z" fill="#324C9A"/>
<circle cx="21" cy="21.0112" r="20.5" stroke="#324C9A"/>
</svg>
