<svg width="44" height="44" viewBox="0 0 44 44" fill="none" xmlns="http://www.w3.org/2000/svg">
<circle cx="22" cy="22" r="22" fill="#324C9A"/>
<path fill-rule="evenodd" clip-rule="evenodd" d="M26.4 32H17.6C14.5087 32 12 29.4913 12 26.4V17.6C12 14.5087 14.5087 12 17.6 12H26.4C29.4913 12 32 14.5087 32 17.6V26.4C32 29.4913 29.4913 32 26.4 32ZM26.35 14.5H17.65C15.9112 14.5 14.5 15.9112 14.5 17.65V26.35C14.5 28.0887 15.9112 29.5 17.65 29.5H26.35C28.0887 29.5 29.5 28.0887 29.5 26.35V17.65C29.5 15.9112 28.0887 14.5 26.35 14.5ZM27 15.75C27.69 15.75 28.25 16.31 28.25 17C28.25 17.69 27.69 18.25 27 18.25C26.31 18.25 25.75 17.69 25.75 17C25.75 16.31 26.31 15.75 27 15.75ZM22 17C24.76 17 27 19.24 27 22C27 24.76 24.76 27 22 27C19.24 27 17 24.76 17 22C17 19.24 19.24 17 22 17ZM22 19.5C23.38 19.5 24.5 20.62 24.5 22C24.5 23.38 23.38 24.5 22 24.5C20.62 24.5 19.5 23.38 19.5 22C19.5 20.62 20.62 19.5 22 19.5Z" fill="#EFF8FF"/>
</svg>
