<svg width="44" height="45" viewBox="0 0 44 45" fill="none" xmlns="http://www.w3.org/2000/svg">
<circle cx="22" cy="22.7715" r="22" fill="white"/>
<path fill-rule="evenodd" clip-rule="evenodd" d="M26.4 32.7715H17.6C14.5087 32.7715 12 30.2627 12 27.1715V18.3715C12 15.2802 14.5087 12.7715 17.6 12.7715H26.4C29.4913 12.7715 32 15.2802 32 18.3715V27.1715C32 30.2627 29.4913 32.7715 26.4 32.7715ZM26.35 15.2715H17.65C15.9112 15.2715 14.5 16.6827 14.5 18.4215V27.1215C14.5 28.8602 15.9112 30.2715 17.65 30.2715H26.35C28.0887 30.2715 29.5 28.8602 29.5 27.1215V18.4215C29.5 16.6827 28.0887 15.2715 26.35 15.2715ZM27 16.5215C27.69 16.5215 28.25 17.0815 28.25 17.7715C28.25 18.4615 27.69 19.0215 27 19.0215C26.31 19.0215 25.75 18.4615 25.75 17.7715C25.75 17.0815 26.31 16.5215 27 16.5215ZM22 17.7715C24.76 17.7715 27 20.0115 27 22.7715C27 25.5315 24.76 27.7715 22 27.7715C19.24 27.7715 17 25.5315 17 22.7715C17 20.0115 19.24 17.7715 22 17.7715ZM22 20.2715C23.38 20.2715 24.5 21.3915 24.5 22.7715C24.5 24.1515 23.38 25.2715 22 25.2715C20.62 25.2715 19.5 24.1515 19.5 22.7715C19.5 21.3915 20.62 20.2715 22 20.2715Z" fill="#31C595"/>
</svg>
