<svg width="42" height="43" viewBox="0 0 42 43" fill="none" xmlns="http://www.w3.org/2000/svg">
<path fill-rule="evenodd" clip-rule="evenodd" d="M17.3248 24.0391C16.8678 23.8241 16.5508 23.3601 16.5508 22.8221C16.5508 22.0801 17.1528 21.4781 17.8938 21.4781C18.1168 21.4781 18.3268 21.5331 18.5128 21.6291C19.2638 21.9971 20.1078 22.2031 20.9998 22.2031C21.8938 22.2031 22.7388 21.9961 23.4918 21.6271C23.6758 21.5321 23.8848 21.4781 24.1058 21.4781C24.8468 21.4781 25.4488 22.0801 25.4488 22.8221C25.4488 23.3601 25.1308 23.8261 24.6728 24.0401C24.1668 24.2891 23.6308 24.4881 23.0728 24.6301L24.9078 26.7101C25.3988 27.2661 25.3458 28.1161 24.7898 28.6071C24.2338 29.0971 23.3838 29.0441 22.8928 28.4881L20.9988 26.3421L19.1048 28.4881C18.6138 29.0441 17.7638 29.0971 17.2078 28.6071C16.6518 28.1161 16.5988 27.2661 17.0898 26.7101L18.9248 24.6301C18.3668 24.4871 17.8318 24.2881 17.3248 24.0391ZM20.9998 13.0791C23.2698 13.0791 25.1138 14.9231 25.1138 17.1931C25.1138 19.4631 23.2698 21.3071 20.9998 21.3071C18.7298 21.3071 16.8858 19.4631 16.8858 17.1931C16.8858 14.9231 18.7298 13.0791 20.9998 13.0791ZM20.9998 15.5781C21.8908 15.5781 22.6148 16.3021 22.6148 17.1931C22.6148 18.0841 21.8908 18.8081 20.9998 18.8081C20.1088 18.8081 19.3848 18.0841 19.3848 17.1931C19.3848 16.3021 20.1088 15.5781 20.9998 15.5781Z" fill="#324C9A"/>
<circle cx="21" cy="21.0112" r="20.5" stroke="#324C9A"/>
</svg>
