<svg width="44" height="44" viewBox="0 0 44 44" fill="none" xmlns="http://www.w3.org/2000/svg">
<circle cx="22" cy="22" r="22" fill="#324C9A"/>
<path fill-rule="evenodd" clip-rule="evenodd" d="M32 18.9333C32 13.3333 30.6667 12 25.0667 12H18.9333C13.3333 12 12 13.3333 12 18.9333V25.0667C12 30.6667 13.3333 32 18.9333 32H25.0667C30.6667 32 32 30.6667 32 25.0667V18.9333ZM15.7501 18.25H17.2084C17.5811 18.25 17.7213 18.4131 17.8611 18.817C18.5743 20.8946 19.7769 22.7104 20.2713 22.7104C20.4567 22.7104 20.5417 22.625 20.5417 22.1542V20.0066C20.5082 19.3953 20.2947 19.1309 20.1365 18.9351C20.0389 18.8142 19.9623 18.7194 19.9623 18.5852C19.9623 18.4221 20.1017 18.25 20.3334 18.25H22.625C22.9341 18.25 23.0417 18.4153 23.0417 18.7861V21.6752C23.0417 21.9842 23.1759 22.0923 23.2686 22.0923C23.454 22.0923 23.6085 21.9842 23.9484 21.6443C24.999 20.4701 25.7406 18.6624 25.7406 18.6624C25.8333 18.4461 26.0042 18.25 26.3751 18.25H27.8334C28.2744 18.25 28.3671 18.4771 28.2744 18.7861C28.1022 19.5751 26.5579 21.7896 26.3382 22.1019L26.3122 22.1387C26.1577 22.3859 26.0959 22.5095 26.3122 22.7876C26.3884 22.8942 26.5509 23.0534 26.7369 23.2356C26.9281 23.4229 27.1442 23.6345 27.3165 23.8382C27.9429 24.5429 28.415 25.1374 28.5465 25.5472C28.6667 25.9583 28.4584 26.1667 28.0417 26.1667H26.5834C26.1928 26.1667 25.9961 25.9479 25.5711 25.4751C25.3909 25.2747 25.1697 25.0286 24.8754 24.7343C24.0102 23.9 23.6394 23.7918 23.4231 23.7918C23.1295 23.7918 23.0417 23.875 23.0417 24.2917V25.5995C23.0417 25.9583 22.927 26.1667 22 26.1667C20.455 26.1667 18.7572 25.2287 17.5521 23.4983C15.7445 20.9645 15.25 19.0487 15.25 18.6624C15.25 18.4461 15.3334 18.25 15.7501 18.25Z" fill="#EFF8FF"/>
</svg>
