<svg width="44" height="45" viewBox="0 0 44 45" fill="none" xmlns="http://www.w3.org/2000/svg">
<circle cx="22" cy="22.7715" r="22" fill="white"/>
<g clip-path="url(#clip0)">
<path fill-rule="evenodd" clip-rule="evenodd" d="M32 19.7048C32 14.1048 30.6667 12.7715 25.0667 12.7715H18.9333C13.3333 12.7715 12 14.1048 12 19.7048V25.8382C12 31.4382 13.3333 32.7715 18.9333 32.7715H25.0667C30.6667 32.7715 32 31.4382 32 25.8382V19.7048ZM15.7501 19.0215H17.2084C17.5811 19.0215 17.7213 19.1846 17.8611 19.5884C18.5743 21.6661 19.7769 23.4818 20.2713 23.4818C20.4567 23.4818 20.5417 23.3965 20.5417 22.9256V20.7781C20.5082 20.1668 20.2947 19.9024 20.1365 19.7066C20.0389 19.5857 19.9623 19.4909 19.9623 19.3567C19.9623 19.1936 20.1017 19.0215 20.3334 19.0215H22.625C22.9341 19.0215 23.0417 19.1867 23.0417 19.5575V22.4467C23.0417 22.7557 23.1759 22.8638 23.2686 22.8638C23.454 22.8638 23.6085 22.7557 23.9484 22.4158C24.999 21.2416 25.7406 19.4339 25.7406 19.4339C25.8333 19.2176 26.0042 19.0215 26.3751 19.0215H27.8334C28.2744 19.0215 28.3671 19.2485 28.2744 19.5575C28.1022 20.3466 26.5579 22.5611 26.3382 22.8734L26.3122 22.9102C26.1577 23.1574 26.0959 23.281 26.3122 23.5591C26.3884 23.6657 26.5509 23.8249 26.7369 24.0071C26.9281 24.1944 27.1442 24.406 27.3165 24.6097C27.9429 25.3144 28.415 25.9089 28.5465 26.3187C28.6667 26.7298 28.4584 26.9382 28.0417 26.9382H26.5834C26.1928 26.9382 25.9961 26.7194 25.5711 26.2466C25.3909 26.0462 25.1697 25.8001 24.8754 25.5058C24.0102 24.6715 23.6394 24.5633 23.4231 24.5633C23.1295 24.5633 23.0417 24.6465 23.0417 25.0632V26.371C23.0417 26.7298 22.927 26.9382 22 26.9382C20.455 26.9382 18.7572 26.0002 17.5521 24.2698C15.7445 21.736 15.25 19.8202 15.25 19.4339C15.25 19.2176 15.3334 19.0215 15.7501 19.0215Z" fill="#31C595"/>
</g>
<defs>
<clipPath id="clip0">
<rect width="20" height="20" fill="white" transform="translate(12 12.7715)"/>
</clipPath>
</defs>
</svg>
