<svg width="42" height="43" viewBox="0 0 42 43" fill="none" xmlns="http://www.w3.org/2000/svg">
<path fill-rule="evenodd" clip-rule="evenodd" d="M29 16.0112C29 14.3552 27.656 13.0112 26 13.0112H16C14.344 13.0112 13 14.3552 13 16.0112V26.0112C13 27.6672 14.344 29.0112 16 29.0112H26C27.656 29.0112 29 27.6672 29 26.0112V16.0112ZM15.445 17.5252H16.767C17.097 17.5252 17.224 17.6642 17.351 18.0332C17.999 19.9012 19.08 21.5412 19.524 21.5412C19.69 21.5412 19.766 21.4642 19.766 21.0452V19.1132C19.7345 18.5644 19.5433 18.325 19.4016 18.1476C19.3138 18.0377 19.245 17.9515 19.245 17.8302C19.245 17.6772 19.372 17.5252 19.575 17.5252H21.634C21.914 17.5252 22.015 17.6772 22.015 18.0082V20.6132C22.015 20.8922 22.13 20.9942 22.219 20.9942C22.384 20.9942 22.524 20.8922 22.829 20.5872C23.769 19.5332 24.443 17.9062 24.443 17.9062C24.532 17.7152 24.684 17.5372 25.015 17.5372H26.324C26.718 17.5372 26.807 17.7412 26.718 18.0202C26.5788 18.6601 25.4303 20.3543 25.0709 20.8844C25.0018 20.9863 24.9619 21.0452 24.964 21.0452C24.824 21.2742 24.773 21.3752 24.964 21.6302C25.0327 21.7235 25.1777 21.8658 25.3437 22.0287C25.5159 22.1978 25.7107 22.3889 25.866 22.5702C26.425 23.2052 26.857 23.7392 26.972 24.1082C27.073 24.4762 26.896 24.6672 26.514 24.6672H25.205C24.8587 24.6672 24.6798 24.4681 24.2989 24.0441C24.1353 23.862 23.9344 23.6384 23.667 23.3712C22.892 22.6212 22.549 22.5192 22.358 22.5192C22.092 22.5192 22.015 22.5832 22.015 22.9642V24.1462C22.015 24.4642 21.914 24.6542 21.075 24.6542C19.69 24.6542 18.152 23.8152 17.072 22.2522C15.445 19.9652 15 18.2362 15 17.8932C15 17.7032 15.064 17.5252 15.445 17.5252Z" fill="#324C9A"/>
<circle cx="21" cy="21.0112" r="20.5" stroke="#324C9A"/>
</svg>
