<svg width="44" height="45" viewBox="0 0 44 45" fill="none" xmlns="http://www.w3.org/2000/svg">
<circle cx="22" cy="22.7715" r="22" fill="white"/>
<path fill-rule="evenodd" clip-rule="evenodd" d="M12 22.7715C12 20.4702 12.4138 18.4402 13.0412 17.2427C13.3412 16.5152 13.8487 15.8965 14.49 15.4602C15.64 14.6202 18.57 14.0215 22 14.0215C25.43 14.0215 28.36 14.6202 29.51 15.4602C30.1513 15.8965 30.6588 16.5152 30.9587 17.2427C31.5863 18.4402 32 20.4702 32 22.7715C32 25.0727 31.5863 27.1027 30.9587 28.3002C30.6588 29.0277 30.1513 29.6465 29.51 30.0827C28.36 30.9227 25.43 31.5215 22 31.5215C18.57 31.5215 15.64 30.9227 14.49 30.0827C13.8487 29.6465 13.3412 29.0277 13.0412 28.3002C12.4138 27.1027 12 25.0727 12 22.7715ZM20.5413 26.3927C20.4325 26.474 20.2975 26.5215 20.1512 26.5215C19.7925 26.5215 19.5 26.229 19.5 25.8702V19.6727C19.5 19.314 19.7925 19.0215 20.1512 19.0215C20.2975 19.0215 20.4325 19.069 20.5413 19.1502L25.455 22.204L25.4525 22.2077C25.6325 22.3315 25.75 22.5377 25.75 22.7715C25.75 23.0052 25.6325 23.2115 25.4525 23.3352L25.455 23.339L20.5413 26.3927Z" fill="#31C595"/>
</svg>
