<svg width="44" height="44" viewBox="0 0 44 44" fill="none" xmlns="http://www.w3.org/2000/svg">
<circle cx="22" cy="22" r="22" fill="#324C9A"/>
<path fill-rule="evenodd" clip-rule="evenodd" d="M12 22C12 19.6988 12.4138 17.6687 13.0412 16.4712C13.3412 15.7437 13.8487 15.125 14.49 14.6888C15.64 13.8488 18.57 13.25 22 13.25C25.43 13.25 28.36 13.8488 29.51 14.6888C30.1513 15.125 30.6588 15.7437 30.9587 16.4712C31.5863 17.6687 32 19.6988 32 22C32 24.3012 31.5863 26.3313 30.9587 27.5288C30.6588 28.2563 30.1513 28.875 29.51 29.3113C28.36 30.1513 25.43 30.75 22 30.75C18.57 30.75 15.64 30.1513 14.49 29.3113C13.8487 28.875 13.3412 28.2563 13.0412 27.5288C12.4138 26.3313 12 24.3012 12 22ZM20.5413 25.6213C20.4325 25.7025 20.2975 25.75 20.1512 25.75C19.7925 25.75 19.5 25.4575 19.5 25.0988V18.9012C19.5 18.5425 19.7925 18.25 20.1512 18.25C20.2975 18.25 20.4325 18.2975 20.5413 18.3787L25.455 21.4325L25.4525 21.4362C25.6325 21.56 25.75 21.7662 25.75 22C25.75 22.2338 25.6325 22.44 25.4525 22.5638L25.455 22.5675L20.5413 25.6213Z" fill="#EFF8FF"/>
</svg>
