<svg width="42" height="43" viewBox="0 0 42 43" fill="none" xmlns="http://www.w3.org/2000/svg">
<path fill-rule="evenodd" clip-rule="evenodd" d="M13 21.0112C13 19.1702 13.331 17.5462 13.833 16.5882C14.073 16.0062 14.479 15.5112 14.992 15.1622C15.912 14.4902 18.256 14.0112 21 14.0112C23.744 14.0112 26.088 14.4902 27.008 15.1622C27.521 15.5112 27.927 16.0062 28.167 16.5882C28.669 17.5462 29 19.1702 29 21.0112C29 22.8522 28.669 24.4762 28.167 25.4342C27.927 26.0162 27.521 26.5112 27.008 26.8602C26.088 27.5322 23.744 28.0112 21 28.0112C18.256 28.0112 15.912 27.5322 14.992 26.8602C14.479 26.5112 14.073 26.0162 13.833 25.4342C13.331 24.4762 13 22.8522 13 21.0112ZM19.833 23.9082C19.746 23.9732 19.638 24.0112 19.521 24.0112C19.234 24.0112 19 23.7772 19 23.4902V18.5322C19 18.2452 19.234 18.0112 19.521 18.0112C19.638 18.0112 19.746 18.0492 19.833 18.1142L23.764 20.5572L23.762 20.5602C23.906 20.6592 24 20.8242 24 21.0112C24 21.1982 23.906 21.3632 23.762 21.4622L23.764 21.4652L19.833 23.9082Z" fill="#324C9A"/>
<circle cx="21" cy="21.0112" r="20.5" stroke="#324C9A"/>
</svg>
