<svg width="24" height="24" viewBox="0 0 24 24" fill="none" xmlns="http://www.w3.org/2000/svg">
<path fill-rule="evenodd" clip-rule="evenodd" d="M16.4679 17.8676C14.944 19.0866 13.011 19.8155 10.9078 19.8155C5.98814 19.8155 2 15.8274 2 10.9078C2 5.98814 5.98814 2 10.9078 2C15.8274 2 19.8155 5.98814 19.8155 10.9078C19.8155 13.011 19.0866 14.944 17.8676 16.4679L22 20.6003L20.6003 22L16.4679 17.8676ZM17.836 10.9078C17.836 14.7341 14.7341 17.836 10.9078 17.836C7.08139 17.836 3.9795 14.7341 3.9795 10.9078C3.9795 7.08139 7.08139 3.9795 10.9078 3.9795C14.7341 3.9795 17.836 7.08139 17.836 10.9078Z" fill="white"/>
</svg>
